<?xml version="1.0" encoding="UTF-8"?>
<svg width="700pt" height="700pt" version="1.1" viewBox="125 0 450 450" xmlns="http://www.w3.org/2000/svg" xmlns:xlink="http://www.w3.org/1999/xlink">
 <g>
  <path d="m322.35 33.602c-18.637 0-33.953 15.312-33.953 33.949v27.125l-64.574 17.676c-4.875 1.3438-8.2461 5.7891-8.2227 10.848v63.875l-18.902 3.5c-5.2891 1.0117-9.1094 5.6406-9.0977 11.027v123.2c0.03125 4.9453 3.3047 9.2812 8.0469 10.676l22.926 6.8242-29.051 43.398c-1.9805 2.9609-2.4375 6.6875-1.2305 10.039 1.2109 3.3477 3.9414 5.9258 7.3555 6.9375l35.352 10.5-63.875 95.723c-1.6719 2.4609-2.2969 5.4844-1.7383 8.4062 0.55469 2.9219 2.25 5.5 4.7109 7.1719 2.4609 1.6719 5.4844 2.2969 8.4062 1.7383s5.5-2.2539 7.1719-4.7148l11.723-17.5h305.2l11.723 17.5c1.6719 2.4609 4.25 4.1562 7.1719 4.7148s5.9453-0.066406 8.4062-1.7383c2.4609-1.6719 4.1562-4.25 4.7109-7.1719 0.55859-2.9219-0.066406-5.9453-1.7383-8.4062l-63.875-95.723 35.352-10.5c3.4141-1.0117 6.1445-3.5898 7.3555-6.9375 1.207-3.3516 0.75-7.0781-1.2305-10.039l-29.051-43.398 22.926-6.8242c4.7422-1.3945 8.0156-5.7305 8.0469-10.676v-78.402c0.042968-2.9961-1.1172-5.8867-3.2227-8.0195-2.1055-2.1367-4.9766-3.3398-7.9766-3.3398-2.9961 0-5.8711 1.2031-7.9766 3.3398-2.1055 2.1328-3.2656 5.0234-3.2227 8.0195v70.176l-140 41.477-140-41.477v-105.7l140-25.898 149.1 27.648c2.9219 0.55859 5.9492-0.070312 8.4102-1.7422 2.4609-1.6758 4.1562-4.2578 4.7148-7.1836 0.55469-2.9219-0.070312-5.9492-1.7461-8.4102-1.6719-2.4609-4.2578-4.1562-7.1797-4.7148l-18.902-3.5v-63.875c0.023437-5.0586-3.3477-9.5039-8.2227-10.848l-64.574-17.676v-27.125c0-18.637-15.316-33.949-33.953-33.949zm0 22.398h55.297c6.6133 0 11.551 4.9375 11.551 11.551v21l-36.223-9.9766c-1.4219-0.40234-2.9102-0.52344-4.375-0.34766-0.53516 0.078126-1.0625 0.19531-1.5781 0.34766l-36.223 9.9766v-21c0-6.6133 4.9375-11.551 11.551-11.551zm16.449 48.125v60.199l-100.8 18.551v-51.102zm22.398 0 100.8 27.648v51.102l-100.8-18.551zm-100.8 142.27c-18.422 0-33.598 15.176-33.598 33.602s15.176 33.602 33.598 33.602c18.426 0 33.602-15.176 33.602-33.602s-15.176-33.602-33.602-33.602zm179.2 0c-18.426 0-33.602 15.176-33.602 33.602s15.176 33.602 33.602 33.602c18.422 0 33.598-15.176 33.598-33.602s-15.176-33.602-33.598-33.602zm-179.2 22.402c6.3203 0 11.203 4.8828 11.203 11.199s-4.8828 11.199-11.203 11.199c-6.3164 0-11.199-4.8828-11.199-11.199s4.8828-11.199 11.199-11.199zm179.2 0c6.3164 0 11.199 4.8828 11.199 11.199s-4.8828 11.199-11.199 11.199c-6.3203 0-11.203-4.8828-11.203-11.199s4.8828-11.199 11.203-11.199zm-198.62 80.148 105.88 31.324c2.0547 0.60547 4.2422 0.60547 6.2969 0l105.88-31.324 24.5 36.75-133.52 39.551-133.52-39.551zm12.422 70.875 76.301 22.574h-91.348l14.523-21.699c0.1875-0.28125 0.36328-0.57422 0.52344-0.875zm193.03 0c0.21875 0.30469 0.45312 0.59766 0.69922 0.875l14.523 21.699h-91.348zm-222.95 44.977h253.05l11.203 16.801h-275.45z" fill="red"/>
 </g>
</svg>
